<svg width="23" height="23" viewBox="0 0 23 23" fill="none" xmlns="http://www.w3.org/2000/svg">
<path d="M16.5598 9.20009C16.5598 5.14289 13.257 1.84009 9.19984 1.84009C5.14264 1.84009 1.83984 5.14289 1.83984 9.20009C1.83984 13.2573 5.14264 16.5601 9.19984 16.5601C10.9018 16.5601 12.4566 15.9805 13.7078 15.0053L18.3998 19.6973L19.697 18.4001L15.005 13.7081C16.0092 12.4196 16.5562 10.8337 16.5598 9.20009ZM3.67984 9.20009C3.67984 6.15489 6.15464 3.68009 9.19984 3.68009C12.245 3.68009 14.7198 6.15489 14.7198 9.20009C14.7198 12.2453 12.245 14.7201 9.19984 14.7201C6.15464 14.7201 3.67984 12.2453 3.67984 9.20009Z" fill="#525B65"/>
</svg>
